<svg xmlns="http://www.w3.org/2000/svg" preserveAspectRatio="xMidYMid" width="25" height="28"><defs><style>.cls-1{fill:#373737;fill-rule:evenodd}</style></defs><path d="M24.943 13.535v11.39c0 3.462-3.075 3.047-3.075 3.047s-14.537-.04-18.38-.04c-3.844 0-3.495-2.84-3.495-2.84V9.825C-.077 8.37 1.25 7.47 1.25 7.47S9.4 3.04 13.593.757c4.193-2.286 3.774 1.316 3.774 1.316s.03 10.108.03 13.71c0 3.6-1.888 4.017-1.888 4.017l-5.8 2.56-5.382 2.356H7.68s7.13-2.147 9.715-3.186c2.586-1.04 2.562-2.632 2.562-2.632v-8.716h2.2c3.424 0 2.786 3.353 2.786 3.353zm-13.118-1.003c1.05-.5 1.9-1.658 1.9-2.59 0-.93-.85-1.282-1.9-.783-1.05.497-1.9 1.657-1.9 2.588 0 .932.85 1.282 1.9.784z" class="cls-1"/></svg>